<?xml version="1.0" encoding="iso-8859-1"?>
<!-- Generator: Adobe Illustrator 25.0.0, SVG Export Plug-In . SVG Version: 6.00 Build 0)  -->
<svg fill="#FFFFFF" version="1.1" baseProfile="basic" id="Layer_1"
	 xmlns="http://www.w3.org/2000/svg" xmlns:xlink="http://www.w3.org/1999/xlink" x="0px" y="0px" viewBox="0 0 72 72"
	 xml:space="preserve">
<path d="M17.006,21.923h37.988l-1.666,29.993C53.076,56.449,49.322,60,44.782,60H27.218c-4.54,0-8.294-3.551-8.546-8.084
	L17.006,21.923z M28.155,49.999c1.104-0.039,1.968-0.964,1.93-2.068l-0.624-18c-0.039-1.104-1.001-1.952-2.068-1.93
	c-1.104,0.039-1.968,0.964-1.93,2.068l0.624,18C26.125,49.149,27.012,50,28.085,50C28.108,50,28.132,50,28.155,49.999z M38,47.923
	V30c0-1.104-0.896-2-2-2s-2,0.896-2,2v17.923c0,1.104,0.896,2,2,2S38,49.028,38,47.923z M45.913,48.069l0.624-18
	c0.038-1.104-0.826-2.03-1.93-2.068c-1.089-0.022-2.03,0.826-2.068,1.93l-0.624,18c-0.038,1.104,0.826,2.03,1.93,2.068
	C43.868,50,43.892,50,43.915,50C44.987,50,45.875,49.149,45.913,48.069z"/>
<path d="M55,18c2.209,0,4,1.791,4,4s-1.791,4-4,4H17c-2.209,0-4-1.791-4-4s1.791-4,4-4H55z"/>
<path d="M39.5,9c4.136,0,7.5,3.364,7.5,7.5v4.571h-7V16.5c0-0.276-0.225-0.5-0.5-0.5h-7c-0.275,0-0.5,0.224-0.5,0.5v4.571h-7V16.5
	c0-4.136,3.364-7.5,7.5-7.5H39.5z"/>
</svg>